<?xml version="1.0" encoding="UTF-8"?>
<svg id="Discord-Logo" xmlns="http://www.w3.org/2000/svg" version="1.1" viewBox="0 0 635.3 131.5">
  <!-- Generator: Adobe Illustrator 29.3.1, SVG Export Plug-In . SVG Version: 2.1.0 Build 151)  -->
  <defs>
    <style>
      .st0 {
        fill: gold;
      }
    </style>
  </defs>
  <path id="Discord-Logo-Blurple" class="st0" d="M81.2,35.5c-1.2,2.2-2.3,4.5-3.4,6.8-9.6-1.4-19.4-1.4-29,0-1-2.3-2.1-4.6-3.4-6.8-9,1.5-17.8,4.2-26.1,8.1C2.8,68.1-1.7,91.9.5,115.4c9.7,7.1,20.5,12.6,32.1,16.1,2.6-3.5,4.9-7.2,6.9-11.1-3.7-1.4-7.3-3.1-10.8-5.2.9-.7,1.8-1.3,2.7-2,20.3,9.5,43.8,9.5,64.1,0,.9.7,1.7,1.4,2.7,2-3.5,2-7.1,3.8-10.8,5.2,2,3.9,4.3,7.6,6.9,11.1,11.5-3.5,22.4-8.9,32.1-16.1,2.6-27.3-4.5-50.9-18.8-71.9-8.3-3.8-17.1-6.5-26.1-8h0ZM42.3,100.9c-6.2,0-11.4-5.7-11.4-12.7s5-12.7,11.4-12.7,11.5,5.7,11.4,12.7c-.1,7-5,12.7-11.4,12.7ZM84.4,100.9c-6.3,0-11.4-5.7-11.4-12.7s5-12.7,11.4-12.7,11.5,5.7,11.4,12.7c-.1,7-5,12.7-11.4,12.7ZM168.8,48.8h37.7c9.1,0,16.8,1.4,23.1,4.3,5.8,2.4,10.7,6.6,14.1,11.8,3.2,5.2,4.8,11.2,4.7,17.3,0,6.1-1.6,12.2-4.9,17.4-3.6,5.5-8.8,9.8-14.9,12.3-6.7,3-14.9,4.6-24.8,4.5h-35V48.8h0ZM203.4,99.3c6.1,0,10.8-1.5,14.1-4.6,3.4-3.3,5-7.7,4.9-12.5,0-4.4-1.4-8.6-4.4-11.7-2.9-2.9-7.4-4.4-13.3-4.4h-11.8v33.2h10.4,0ZM304.8,116.4c-5-1.2-9.7-3.2-14.1-5.9v-16c3.8,2.8,8.1,4.8,12.7,6,5,1.5,10.2,2.3,15.4,2.4,1.8,0,3.6-.2,5.3-.9,1.2-.6,1.8-1.4,1.8-2.2,0-.9-.3-1.8-1-2.4-1.1-.8-2.4-1.4-3.8-1.6l-11.6-2.6c-6.6-1.5-11.4-3.7-14.2-6.4-2.8-2.9-4.3-6.8-4.1-10.8,0-3.6,1.3-7.1,3.7-9.8,2.9-3,6.5-5.2,10.4-6.4,5.1-1.6,10.5-2.4,15.9-2.3,5,0,10,.5,14.9,1.7,3.9.9,7.7,2.4,11.2,4.4v15.2c-3.3-1.9-6.8-3.4-10.5-4.3-4-1.1-8.1-1.6-12.2-1.6-6.1,0-9.1,1-9.1,3.1,0,.9.5,1.8,1.4,2.2,1.7.7,3.4,1.2,5.2,1.5l9.7,1.7c6.3,1.1,11,3,14,5.8s4.6,6.8,4.6,12.1c0,5.7-2.8,11-7.7,14-5.1,3.4-12.4,5.1-21.8,5.1-5.4,0-10.8-.7-16.1-2h0ZM373.3,114.4c-5.2-2.4-9.5-6.2-12.5-11-2.8-4.7-4.2-10.2-4.1-15.7,0-5.5,1.4-10.9,4.3-15.6,3.1-4.8,7.5-8.5,12.8-10.8,6.3-2.8,13.2-4.1,20.1-3.9,9.7,0,17.7,2,24.1,6.1v17.7c-2.4-1.6-5.1-2.9-7.9-3.8-3.1-1-6.4-1.5-9.7-1.4-6,0-10.7,1.1-14.1,3.3-4.8,2.7-6.5,8.7-3.8,13.4.9,1.6,2.1,2.8,3.7,3.7,3.3,2.2,8.1,3.3,14.3,3.3,3.2,0,6.4-.5,9.5-1.4,2.8-.8,5.5-2,8.1-3.4v17.1c-7.5,4.4-16,6.6-24.6,6.4-6.9.2-13.8-1.2-20.1-4.1h0ZM441.9,114.4c-5.2-2.4-9.7-6.2-12.8-11-2.9-4.7-4.5-10.2-4.4-15.8,0-5.5,1.4-10.9,4.4-15.5,3.1-4.7,7.5-8.4,12.7-10.7,12.7-5.2,26.9-5.2,39.6,0,5.2,2.3,9.5,5.9,12.7,10.6,2.9,4.7,4.4,10.1,4.3,15.6,0,5.6-1.4,11-4.3,15.8-3.1,4.8-7.5,8.7-12.7,11-12.6,5.4-26.9,5.4-39.5,0h0s0,0,0,0ZM471.3,97.2c2.4-2.5,3.7-5.9,3.5-9.3.2-3.4-1.1-6.8-3.5-9.2-2.6-2.4-6.1-3.6-9.7-3.4-3.6-.2-7,1.1-9.7,3.4-2.4,2.4-3.7,5.8-3.5,9.2-.2,3.5,1.1,6.8,3.5,9.3,2.6,2.4,6.1,3.7,9.7,3.5,3.6.2,7.1-1.1,9.7-3.5ZM556.6,61v20.9c-2.9-1.7-6.2-2.6-9.6-2.4-5.2,0-9.1,1.6-11.9,4.7s-4.1,8-4.1,14.5v17.8h-23.7v-56.5h23.2v18c1.3-6.6,3.4-11.4,6.2-14.5,2.8-3.1,6.9-4.7,11-4.7,3.1,0,6.1.7,8.8,2.3ZM635.3,46.9v69.6h-23.7v-12.7c-1.8,4.5-5,8.3-9.1,10.9-4.6,2.6-9.8,3.9-15.1,3.8-5,.1-9.8-1.2-14-3.9-4-2.6-7.3-6.3-9.3-10.7-2.2-4.8-3.3-10.1-3.2-15.4-.2-5.5,1-11,3.4-15.9,2.2-4.5,5.7-8.4,10-11,4.4-2.7,9.5-4,14.7-4,11.3,0,18.8,4.9,22.7,14.7v-25.2h23.7ZM608.1,96.9c2.4-2.4,3.8-5.7,3.6-9.1.1-3.3-1.2-6.5-3.6-8.8-5.6-4.5-13.6-4.5-19.2,0-2.4,2.3-3.7,5.6-3.6,8.9-.1,3.4,1.2,6.7,3.6,9,2.6,2.4,6,3.6,9.5,3.5,3.6.2,7-1.1,9.7-3.5h0ZM268.4,44.8c6.5,0,11.8,4.7,11.8,10.6s-5.3,10.6-11.8,10.6-11.8-4.7-11.8-10.6,5.3-10.6,11.8-10.6ZM256.5,73.3c7.6,3.2,16.1,3.2,23.6,0v43.5h-23.6v-43.5Z"/>
  <g>
    <path class="st0" d="M6.6,22.5c-1.9-.9-3.3-2.1-4.3-3.6-1-1.5-1.5-3.3-1.5-5.2s.5-3.7,1.5-5.3c1-1.6,2.4-2.8,4.3-3.7s4.1-1.3,6.8-1.3,3.1.2,4.4.5c1.3.3,2.6.8,3.8,1.4v5.7c-.8-.6-1.7-1-2.9-1.3-1.1-.3-2.4-.5-3.7-.5-2.1,0-3.8.4-5,1.2-1.2.8-1.8,1.9-1.8,3.2s.6,2.4,1.8,3.3c1.2.8,2.9,1.2,5,1.2s2.6-.2,3.7-.6c1.2-.4,2.1-.9,2.9-1.5v5.6c-1.3.8-2.6,1.3-3.9,1.7-1.3.4-2.8.5-4.5.5-2.6,0-4.8-.4-6.7-1.3Z"/>
    <path class="st0" d="M26,22.3c-1.1-1-1.7-2.5-1.7-4.6V3.4h6.6v13.4c0,1.5.8,2.2,2.5,2.2s1.5-.2,2.2-.5v4.5c-.5.2-1.1.4-1.9.6-.8.1-1.7.2-2.6.2-2.3,0-4-.5-5.1-1.5Z"/>
    <path class="st0" d="M38.4,5.8c-.7-.5-1-1.2-1-2s.3-1.4,1-1.9c.7-.5,1.6-.8,2.6-.8s1.9.3,2.6.8c.7.5,1,1.2,1,1.9s-.3,1.5-1,2c-.7.5-1.5.8-2.6.8s-1.9-.3-2.6-.8ZM37.6,8.2h6.6v15h-6.6v-15Z"/>
    <path class="st0" d="M51.2,22.6c-1.5-.8-2.7-1.8-3.5-3.1-.8-1.3-1.2-2.8-1.2-4.4s.4-3.1,1.2-4.4c.8-1.3,2-2.3,3.6-3s3.4-1.1,5.6-1.1,5,.6,6.7,1.7v5c-.6-.4-1.3-.8-2.2-1-.8-.3-1.8-.4-2.7-.4-1.7,0-3,.3-3.9.9-.9.6-1.4,1.4-1.4,2.4s.5,1.7,1.4,2.4c.9.6,2.3.9,4,.9s1.8-.1,2.7-.4c.9-.3,1.6-.6,2.3-1v4.9c-2,1.2-4.3,1.8-6.9,1.8s-4.1-.4-5.6-1.1Z"/>
    <path class="st0" d="M66.3,23.2V3.4h6.6v10.2l5.3-6.5h7.5l-6.2,7.3,6.7,8.8h-7.6l-5.6-8v8h-6.6Z"/>
    <path class="st0" d="M90,22.7c-1.6-.7-2.8-1.8-3.7-3.1-.9-1.3-1.3-2.9-1.3-4.6s.4-3.1,1.2-4.4c.8-1.3,1.9-2.3,3.4-3s3.2-1.1,5.2-1.1c3,0,5.2.7,6.7,2.1,1.5,1.4,2.3,3.4,2.3,5.9v1.8h-12.1c.4.7,1.1,1.3,2,1.7,1,.4,2.2.6,3.6.6s2.2-.1,3.2-.4c.9-.3,1.9-.7,2.7-1.2v4.8c-.9.6-2,1.1-3.4,1.4-1.3.4-2.8.5-4.2.5-2.2,0-4.1-.4-5.7-1.1ZM98.5,13.4c-.1-.7-.5-1.3-1.1-1.6-.6-.4-1.3-.6-2.3-.6s-1.7.2-2.4.6c-.6.4-1,.9-1.2,1.6h6.9Z"/>
    <path class="st0" d="M105.6,18.9l8.8-7.1h-8.6v-4.7h17.1v4.4l-8.8,7h9.3v4.7h-17.8v-4.4Z"/>
    <path class="st0" d="M133.5,5.8c-.7-.5-1-1.2-1-2s.3-1.4,1-1.9c.7-.5,1.6-.8,2.6-.8s1.9.3,2.6.8c.7.5,1,1.2,1,1.9s-.3,1.5-1,2c-.7.5-1.5.8-2.6.8s-1.9-.3-2.6-.8ZM132.7,8.2h6.6v15h-6.6v-15Z"/>
    <path class="st0" d="M146.3,22.6c-1.5-.8-2.7-1.8-3.5-3.1-.8-1.3-1.2-2.8-1.2-4.4s.4-3.1,1.2-4.4c.8-1.3,2-2.3,3.6-3s3.4-1.1,5.6-1.1,5,.6,6.7,1.7v5c-.6-.4-1.3-.8-2.2-1-.8-.3-1.8-.4-2.7-.4-1.7,0-3,.3-3.9.9-.9.6-1.4,1.4-1.4,2.4s.5,1.7,1.4,2.4c.9.6,2.3.9,4,.9s1.8-.1,2.7-.4c.9-.3,1.6-.6,2.3-1v4.9c-2,1.2-4.3,1.8-6.9,1.8s-4.1-.4-5.6-1.1Z"/>
    <path class="st0" d="M162.2,5.8c-.7-.5-1-1.2-1-2s.3-1.4,1-1.9c.7-.5,1.6-.8,2.6-.8s1.9.3,2.6.8c.7.5,1,1.2,1,1.9s-.3,1.5-1,2c-.7.5-1.5.8-2.6.8s-1.9-.3-2.6-.8ZM161.4,8.2h6.6v15h-6.6v-15Z"/>
    <path class="st0" d="M178.2,7.1h6.6v4c.5-1.5,1.2-2.6,2.4-3.4,1.1-.8,2.6-1.2,4.4-1.2s2.8.4,3.9,1.1c1.1.7,2,1.7,2.6,3,.6,1.3.9,2.7.9,4.4s-.3,3.2-1,4.5-1.5,2.4-2.7,3.1c-1.2.7-2.5,1.1-4,1.1-3.2,0-5.4-1.3-6.6-3.8v8.5h-6.6V7.1ZM191.1,17.6c.7-.7,1-1.5,1-2.6s-.3-1.9-1-2.5c-.7-.7-1.6-1-2.7-1s-2,.3-2.7,1c-.7.7-1,1.5-1,2.6s.3,1.9,1,2.5c.6.6,1.5,1,2.7,1s2-.3,2.7-1Z"/>
    <path class="st0" d="M205.3,22.6c-1.6-.8-2.8-1.8-3.6-3.1-.8-1.3-1.2-2.8-1.2-4.5s.4-3.1,1.2-4.4,2-2.3,3.6-3c1.6-.7,3.4-1.1,5.6-1.1s4,.4,5.6,1.1c1.6.7,2.7,1.7,3.5,3,.8,1.3,1.2,2.8,1.2,4.4s-.4,3.1-1.2,4.5c-.8,1.3-2,2.4-3.6,3.1-1.6.8-3.4,1.1-5.5,1.1s-4-.4-5.5-1.1ZM213.5,17.8c.7-.7,1-1.6,1-2.7s-.3-2-1-2.6c-.7-.7-1.6-1-2.7-1s-2.1.3-2.7,1c-.7.7-1,1.5-1,2.6s.3,2,1,2.7c.7.7,1.6,1,2.7,1s2-.3,2.7-1Z"/>
    <path class="st0" d="M225,22c-1.2-1.2-1.8-2.9-1.8-5.1V7.1h6.6v8.1c0,1.2.2,2.1.7,2.7.5.6,1.2.9,2.2.9,2.1,0,3.2-1.3,3.2-3.7v-7.9h6.6v16.1h-6.6v-3.3c-1,2.6-3,3.8-6,3.8s-3.8-.6-5-1.8Z"/>
    <path class="st0" d="M245.7,7.1h6.5v5.1c.4-1.9.9-3.3,1.7-4.1.8-.9,1.8-1.3,3.1-1.3s1.8.2,2.5.7v6c-.7-.5-1.6-.7-2.7-.7s-2.6.4-3.3,1.3c-.8.9-1.2,2.3-1.2,4.1v5.1h-6.6V7.1Z"/>
    <path class="st0" d="M267.8,7.1h6.5v5.1c.4-1.9.9-3.3,1.7-4.1.8-.9,1.8-1.3,3.1-1.3s1.8.2,2.5.7v6c-.7-.5-1.6-.7-2.7-.7s-2.6.4-3.3,1.3c-.8.9-1.2,2.3-1.2,4.1v5.1h-6.6V7.1Z"/>
    <path class="st0" d="M287.5,22.7c-1.6-.7-2.8-1.8-3.7-3.1-.9-1.3-1.3-2.9-1.3-4.6s.4-3.1,1.2-4.4c.8-1.3,1.9-2.3,3.4-3s3.2-1.1,5.2-1.1c3,0,5.2.7,6.7,2.1,1.5,1.4,2.3,3.4,2.3,5.9v1.8h-12.1c.4.7,1.1,1.3,2,1.7,1,.4,2.2.6,3.6.6s2.2-.1,3.2-.4c.9-.3,1.9-.7,2.7-1.2v4.8c-.9.6-2,1.1-3.4,1.4-1.3.4-2.8.5-4.2.5-2.2,0-4.1-.4-5.7-1.1ZM296,13.4c-.1-.7-.5-1.3-1.1-1.6-.6-.4-1.3-.6-2.3-.6s-1.7.2-2.4.6c-.6.4-1,.9-1.2,1.6h6.9Z"/>
    <path class="st0" d="M302,28.8c-.6-.1-1.1-.3-1.5-.6v-4.2c.5.3,1.1.5,1.7.5,1.2,0,1.8-.7,1.8-2v-14.4h6.6v15.3c0,1.8-.6,3.1-1.7,4.1-1.1,1-2.8,1.5-4.9,1.5s-1.4,0-2-.2ZM304.7,5.7c-.7-.5-1-1.2-1-2s.3-1.4,1-1.9c.7-.5,1.6-.8,2.6-.8s1.9.3,2.6.8c.7.5,1,1.2,1,1.9s-.3,1.5-1,2c-.7.5-1.5.8-2.6.8s-1.9-.3-2.6-.8Z"/>
    <path class="st0" d="M317.7,22.6c-1.6-.8-2.8-1.8-3.6-3.1-.8-1.3-1.2-2.8-1.2-4.5s.4-3.1,1.2-4.4,2-2.3,3.6-3c1.6-.7,3.4-1.1,5.5-1.1s4,.4,5.6,1.1c1.6.7,2.7,1.7,3.5,3s1.2,2.8,1.2,4.4-.4,3.1-1.2,4.5c-.8,1.3-2,2.4-3.6,3.1-1.6.8-3.4,1.1-5.5,1.1s-4-.4-5.5-1.1ZM325.9,17.8c.7-.7,1-1.6,1-2.7s-.3-2-1-2.6c-.7-.7-1.6-1-2.7-1s-2.1.3-2.7,1c-.7.7-1,1.5-1,2.6s.3,2,1,2.7c.7.7,1.6,1,2.7,1s2-.3,2.7-1Z"/>
    <path class="st0" d="M336.5,5.8c-.7-.5-1-1.2-1-2s.3-1.4,1-1.9c.7-.5,1.6-.8,2.6-.8s1.9.3,2.6.8c.7.5,1,1.2,1,1.9s-.3,1.5-1,2c-.7.5-1.5.8-2.6.8s-1.9-.3-2.6-.8ZM335.8,8.2h6.6v15h-6.6v-15Z"/>
    <path class="st0" d="M357.5,12.8c-.5-.6-1.2-.9-2.2-.9s-1.9.3-2.5,1c-.6.6-.8,1.6-.8,2.8v7.6h-6.6V7.1h6.6v4c.6-1.6,1.4-2.7,2.4-3.5,1-.7,2.4-1.1,4-1.1s3.8.6,4.9,1.9c1.1,1.3,1.7,3.1,1.7,5.7v9.1h-6.6v-7.7c0-1.2-.3-2.1-.8-2.8Z"/>
    <path class="st0" d="M370.5,22.7c-1.1-.7-2-1.8-2.6-3.1-.6-1.3-.9-2.8-.9-4.4,0-1.7.3-3.2.9-4.5.6-1.3,1.5-2.3,2.7-3.1,1.2-.7,2.6-1.1,4.1-1.1,3.2,0,5.4,1.3,6.4,4V3.4h6.6v19.8h-6.6v-3.6c-.6,1.4-1.4,2.4-2.6,3.1s-2.6,1-4.2,1-2.8-.4-3.9-1.1ZM380.3,17.6c.7-.7,1-1.5,1-2.6s-.3-1.9-1-2.5c-.7-.6-1.6-1-2.7-1s-2,.3-2.7,1c-.7.7-1,1.5-1,2.5s.3,1.9,1,2.6c.7.7,1.6,1,2.7,1s2-.3,2.7-1Z"/>
    <path class="st0" d="M390.9,7.1h6.5v5.1c.4-1.9.9-3.3,1.7-4.1.8-.9,1.8-1.3,3.1-1.3s1.8.2,2.5.7v6c-.7-.5-1.6-.7-2.7-.7s-2.6.4-3.3,1.3c-.8.9-1.2,2.3-1.2,4.1v5.1h-6.6V7.1Z"/>
    <path class="st0" d="M410.6,22.7c-1.6-.7-2.8-1.8-3.7-3.1-.9-1.3-1.3-2.9-1.3-4.6s.4-3.1,1.2-4.4c.8-1.3,1.9-2.3,3.4-3,1.5-.7,3.2-1.1,5.2-1.1,3,0,5.2.7,6.7,2.1,1.5,1.4,2.3,3.4,2.3,5.9v1.8h-12.1c.4.7,1.1,1.3,2,1.7,1,.4,2.2.6,3.6.6s2.2-.1,3.2-.4c.9-.3,1.9-.7,2.7-1.2v4.8c-.9.6-2,1.1-3.4,1.4s-2.8.5-4.2.5c-2.2,0-4.1-.4-5.7-1.1ZM419.1,13.4c-.1-.7-.5-1.3-1.1-1.6-.6-.4-1.3-.6-2.3-.6s-1.7.2-2.4.6c-.6.4-1,.9-1.2,1.6h6.9Z"/>
    <path class="st0" d="M435.5,22.3c-1.1-1-1.7-2.5-1.7-4.6V3.4h6.6v13.4c0,1.5.8,2.2,2.5,2.2s1.5-.2,2.2-.5v4.5c-.5.2-1.1.4-1.9.6-.8.1-1.7.2-2.6.2-2.3,0-4-.5-5.1-1.5Z"/>
    <path class="st0" d="M449.1,23.1c-.9-.5-1.5-1.1-2-1.9s-.7-1.7-.7-2.7.2-1.9.7-2.7c.5-.8,1.2-1.4,2.1-1.9.9-.4,2-.7,3.3-.7s2.1.2,2.9.5c.8.3,1.5.9,2.1,1.6-.1-1.2-.7-2.1-1.6-2.7-.9-.6-2.1-.9-3.6-.9s-1.9.2-2.8.5c-.9.3-1.7.8-2.5,1.5v-5c2.1-1.4,4.5-2.1,7.4-2.1s5.4.7,7,2.2c1.6,1.5,2.4,3.7,2.4,6.5v7.9h-6.4v-2c-1.2,1.7-3,2.6-5.5,2.6s-2.2-.2-3.1-.7ZM456.9,19.5c.5-.3.8-.8.8-1.3s-.3-1-.8-1.3c-.5-.3-1.2-.5-2-.5s-1.4.2-1.8.5c-.4.3-.7.8-.7,1.3s.2,1,.7,1.3c.4.3,1,.5,1.8.5s1.5-.2,2-.5Z"/>
    <path class="st0" d="M473.9,7.1h6.5v5.1c.4-1.9.9-3.3,1.7-4.1.8-.9,1.8-1.3,3.1-1.3s1.8.2,2.5.7v6c-.7-.5-1.6-.7-2.7-.7s-2.6.4-3.3,1.3c-.8.9-1.2,2.3-1.2,4.1v5.1h-6.6V7.1Z"/>
    <path class="st0" d="M491.3,22c-1.2-1.2-1.8-2.9-1.8-5.1V7.1h6.6v8.1c0,1.2.2,2.1.7,2.7.5.6,1.2.9,2.2.9,2.1,0,3.2-1.3,3.2-3.7v-7.9h6.6v16.1h-6.6v-3.3c-1,2.6-3,3.8-6,3.8s-3.8-.6-5-1.8Z"/>
    <path class="st0" d="M515.8,22.6c-1.5-.8-2.7-1.8-3.5-3.1-.8-1.3-1.2-2.8-1.2-4.4s.4-3.1,1.2-4.4,2-2.3,3.6-3,3.4-1.1,5.6-1.1,5,.6,6.7,1.7v5c-.6-.4-1.3-.8-2.2-1-.8-.3-1.8-.4-2.7-.4-1.7,0-3,.3-3.9.9-.9.6-1.4,1.4-1.4,2.4s.5,1.7,1.4,2.4c.9.6,2.3.9,4,.9s1.8-.1,2.7-.4c.9-.3,1.6-.6,2.3-1v4.9c-2,1.2-4.3,1.8-6.9,1.8s-4.1-.4-5.6-1.1Z"/>
    <path class="st0" d="M530.9,3.4h6.6v7.6c.5-1.3,1.2-2.4,2.2-3.2,1-.8,2.4-1.2,4.2-1.2s3.8.6,4.9,1.9c1.1,1.3,1.7,3.1,1.7,5.7v9.1h-6.6v-7.7c0-1.2-.3-2.1-.8-2.8-.5-.6-1.2-.9-2.2-.9s-1.9.3-2.5,1c-.6.6-.8,1.6-.8,2.8v7.6h-6.6V3.4Z"/>
    <path class="st0" d="M557.4,22.7c-1.6-.7-2.8-1.8-3.7-3.1-.9-1.3-1.3-2.9-1.3-4.6s.4-3.1,1.2-4.4c.8-1.3,1.9-2.3,3.4-3,1.5-.7,3.2-1.1,5.2-1.1,3,0,5.2.7,6.7,2.1,1.5,1.4,2.3,3.4,2.3,5.9v1.8h-12.1c.4.7,1.1,1.3,2,1.7,1,.4,2.2.6,3.6.6s2.2-.1,3.2-.4c.9-.3,1.9-.7,2.7-1.2v4.8c-.9.6-2,1.1-3.4,1.4s-2.8.5-4.2.5c-2.2,0-4.1-.4-5.7-1.1ZM565.9,13.4c-.1-.7-.5-1.3-1.1-1.6-.6-.4-1.3-.6-2.3-.6s-1.7.2-2.4.6c-.6.4-1,.9-1.2,1.6h6.9Z"/>
    <path class="st0" d="M584.2,23.2c-1.5-.4-2.8-.9-4-1.7v-4.6c.9.7,2.1,1.2,3.6,1.7,1.5.5,2.9.7,4.3.7s1.1,0,1.5-.2c.3-.2.5-.4.5-.6s0-.5-.3-.7c-.2-.2-.5-.3-1.1-.4l-3.2-.7c-1.9-.4-3.2-1-4-1.8-.8-.8-1.2-1.8-1.2-3.1s.3-2,1-2.8c.7-.8,1.7-1.4,2.9-1.8,1.3-.4,2.7-.6,4.4-.6s2.9.2,4.1.5c1.2.3,2.3.7,3.2,1.3v4.3c-.9-.5-1.9-.9-3-1.2-1.1-.3-2.2-.4-3.4-.4-1.7,0-2.5.3-2.5.9s.1.5.4.6c.3.1.7.3,1.5.4l2.7.5c1.8.3,3.1.9,4,1.6s1.3,1.9,1.3,3.4-.3,2-1,2.8c-.6.8-1.6,1.4-2.8,1.9s-2.7.7-4.5.7-3.1-.2-4.5-.6Z"/>
    <path class="st0" d="M600.9,22c-1.2-1.2-1.8-2.9-1.8-5.1V7.1h6.6v8.1c0,1.2.2,2.1.7,2.7.5.6,1.2.9,2.2.9,2.1,0,3.2-1.3,3.2-3.7v-7.9h6.6v16.1h-6.6v-3.3c-1,2.6-3,3.8-6,3.8s-3.8-.6-5-1.8Z"/>
    <path class="st0" d="M621.5,7.1h6.5v5.1c.4-1.9.9-3.3,1.7-4.1.8-.9,1.8-1.3,3.1-1.3s1.8.2,2.5.7v6c-.7-.5-1.6-.7-2.7-.7s-2.6.4-3.3,1.3c-.8.9-1.2,2.3-1.2,4.1v5.1h-6.6V7.1Z"/>
  </g>
</svg>